<svg width="18" height="18" viewBox="0 0 18 18" fill="none" xmlns="http://www.w3.org/2000/svg">
<path d="M10 4.8208C12.103 4.8208 13 5.7178 13 7.8208H15C15 4.5958 13.225 2.8208 10 2.8208V4.8208ZM13.422 10.2638C13.2299 10.0891 12.9774 9.996 12.7178 10.004C12.4583 10.012 12.212 10.1206 12.031 10.3068L9.63804 12.7678C9.06204 12.6578 7.90404 12.2968 6.71204 11.1078C5.52004 9.9148 5.15904 8.7538 5.05204 8.1818L7.51104 5.7878C7.69745 5.60692 7.80617 5.36062 7.8142 5.101C7.82223 4.84139 7.72892 4.58884 7.55404 4.3968L3.85904 0.333796C3.68408 0.141152 3.44092 0.0242999 3.18119 0.0080553C2.92146 -0.00818926 2.66564 0.0774539 2.46804 0.246796L0.298038 2.1078C0.125149 2.28131 0.0219574 2.51225 0.00803782 2.7568C-0.00696218 3.0068 -0.292962 8.9288 4.29904 13.5228C8.30504 17.5278 13.323 17.8208 14.705 17.8208C14.907 17.8208 15.031 17.8148 15.064 17.8128C15.3086 17.7991 15.5394 17.6955 15.712 17.5218L17.572 15.3508C17.7415 15.1533 17.8273 14.8976 17.8113 14.6378C17.7952 14.3781 17.6785 14.1349 17.486 13.9598L13.422 10.2638Z" fill="#1F1F1F"/>
</svg>
