<svg width="19" height="20" viewBox="0 0 19 20" fill="none" xmlns="http://www.w3.org/2000/svg">
<path d="M18.6308 7.41256C18.5732 7.24274 18.467 7.09353 18.3256 6.98335C18.1841 6.87316 18.0134 6.80681 17.8347 6.79251L12.6055 6.377L10.3427 1.36798C10.2706 1.20665 10.1534 1.06963 10.0052 0.973442C9.85696 0.877257 9.68407 0.826025 9.50738 0.825928C9.33069 0.825831 9.15774 0.876874 9.00941 0.972896C8.86109 1.06892 8.74372 1.20582 8.67148 1.36707L6.40867 6.377L1.17951 6.79251C1.00382 6.80642 0.835861 6.87066 0.695723 6.97754C0.555585 7.08442 0.449205 7.2294 0.38931 7.39516C0.329415 7.56091 0.318541 7.74041 0.357988 7.91218C0.397436 8.08395 0.485535 8.24072 0.611746 8.36373L4.47605 12.1308L3.10937 18.0488C3.06788 18.2279 3.08118 18.4154 3.14755 18.5869C3.21392 18.7584 3.3303 18.9059 3.48159 19.0105C3.63288 19.115 3.81208 19.1716 3.99596 19.173C4.17983 19.1744 4.35988 19.1205 4.51274 19.0183L9.50708 15.6888L14.5014 19.0183C14.6577 19.1221 14.8419 19.1755 15.0294 19.1713C15.2169 19.1672 15.3986 19.1058 15.5502 18.9953C15.7017 18.8848 15.8158 18.7306 15.8771 18.5533C15.9383 18.3761 15.9438 18.1843 15.8929 18.0039L14.2152 12.1336L18.3758 8.38941C18.6482 8.14359 18.7482 7.76019 18.6308 7.41256Z" fill="#F3CD03"/>
</svg>
