<?xml version="1.0" standalone="no"?>
<!DOCTYPE svg PUBLIC "-//W3C//DTD SVG 20010904//EN"
 "http://www.w3.org/TR/2001/REC-SVG-20010904/DTD/svg10.dtd">
<svg version="1.0" xmlns="http://www.w3.org/2000/svg"
 width="300.000000pt" height="300.000000pt" viewBox="0 0 300.000000 300.000000"
 preserveAspectRatio="xMidYMid meet">
<metadata>
Created by potrace 1.10, written by Peter Selinger 2001-2011
</metadata>
<g transform="translate(0.000000,300.000000) scale(0.100000,-0.100000)"
fill="#000000" stroke="none">
<path d="M636 2865 c-47 -16 -91 -57 -117 -107 -18 -35 -19 -64 -19 -473 l0
-435 -94 0 c-140 0 -201 -28 -253 -118 l-28 -47 -3 -330 -4 -330 -39 -18 c-43
-20 -69 -60 -69 -104 0 -28 0 -28 40 17 38 42 39 43 20 10 -19 -33 -20 -52
-20 -285 0 -232 1 -252 20 -283 31 -50 24 -51 -20 -2 l-39 45 -1 -31 c0 -17 9
-43 21 -58 43 -55 51 -56 396 -56 300 0 320 1 351 20 18 11 41 34 52 52 19 31
20 51 20 308 0 316 -2 328 -80 367 -41 21 -58 23 -215 23 l-170 0 3 74 c4 70
2 77 -22 99 -37 35 -37 105 0 142 26 26 26 29 22 136 l-3 109 57 0 58 0 0 -95
c0 -136 27 -191 115 -238 38 -21 53 -22 385 -24 l345 -2 3 -171 2 -170 -98 0
c-86 0 -103 -3 -133 -23 -66 -44 -69 -60 -69 -360 0 -247 2 -271 20 -306 13
-27 33 -46 63 -60 39 -19 61 -21 225 -21 176 0 181 1 196 22 20 28 20 33 0 52
-13 13 -45 16 -198 16 -164 0 -185 2 -199 18 -15 16 -17 51 -17 278 0 193 3
265 13 277 11 16 40 18 321 18 268 0 312 -3 325 -16 13 -13 16 -53 19 -248 2
-128 0 -246 -3 -264 -8 -43 -30 -63 -70 -63 -56 0 -82 -41 -47 -73 41 -38 137
-9 180 53 22 32 22 39 22 314 0 263 -1 283 -20 314 -35 56 -72 72 -177 72
l-93 0 0 173 0 172 368 0 c357 0 368 1 407 22 88 47 115 102 115 238 l0 95 58
0 57 0 0 -280 0 -280 -170 0 c-157 0 -174 -2 -215 -23 -78 -39 -80 -51 -80
-367 0 -257 1 -277 20 -308 11 -18 34 -41 52 -52 31 -19 51 -20 351 -20 337 0
348 1 391 49 10 11 22 39 26 61 l8 41 -27 -25 -26 -25 3 276 c3 273 3 275 22
258 19 -18 20 -17 20 9 0 43 -27 83 -69 103 l-39 18 -4 330 -3 330 -28 47
c-52 90 -113 118 -253 118 l-94 0 0 125 c0 113 -2 125 -19 135 -24 12 -48 4
-61 -21 -6 -10 -10 -155 -10 -354 0 -373 0 -374 -67 -401 -48 -21 -1638 -21
-1686 0 -68 28 -67 19 -69 491 l-3 425 506 0 c423 0 513 2 549 15 23 8 86 44
141 80 155 101 126 94 395 95 l239 1 -3 -83 c-3 -71 -1 -87 16 -108 17 -22 23
-23 46 -12 l26 12 0 232 c0 204 -3 238 -19 273 -23 51 -79 101 -128 114 -25 7
-315 11 -858 11 -670 -1 -827 -3 -859 -15z m1721 -95 c45 -27 52 -46 58 -149
l4 -91 -242 0 c-169 -1 -253 -5 -277 -14 -19 -6 -81 -42 -138 -79 -56 -37
-116 -74 -132 -82 -25 -13 -103 -15 -537 -15 l-508 0 2 187 c2 165 5 191 21
213 38 51 11 50 892 50 799 0 826 -1 857 -20z m98 -318 c-3 -3 -15 4 -27 15
l-21 21 24 29 24 29 3 -44 c2 -24 1 -47 -3 -50z m-1872 -139 l25 -19 -21 -15
c-12 -8 -27 -18 -34 -22 -10 -6 -13 7 -12 55 0 45 3 57 9 42 4 -12 20 -30 33
-41z m-43 -594 l0 -130 -26 20 c-15 12 -34 21 -43 21 -9 0 -3 8 16 20 57 34
57 106 0 140 -19 12 -25 20 -16 20 9 0 27 9 40 20 13 10 25 19 27 20 1 0 2
-59 2 -131z m1958 59 c-19 -18 -28 -36 -28 -58 0 -22 9 -40 28 -58 l29 -27
-34 -22 -33 -22 0 129 0 129 33 -22 34 -22 -29 -27z m-2230 -7 c-30 -19 -52
-44 -67 -73 -20 -42 -21 -58 -21 -349 0 -350 0 -349 74 -349 55 0 67 15 76 93
l7 62 2 -51 c1 -36 8 -62 26 -88 l24 -36 -108 0 c-60 0 -124 -3 -142 -6 l-34
-7 30 32 30 32 3 312 c3 376 7 394 97 441 50 26 52 18 3 -13z m2477 6 c26 -14
48 -37 63 -67 21 -43 22 -53 22 -350 0 -224 4 -311 13 -326 6 -12 17 -30 24
-40 11 -18 6 -19 -118 -16 -71 2 -129 5 -129 7 0 3 9 19 20 37 19 31 20 51 20
294 l0 262 -36 32 -36 31 38 -3 39 -3 5 -303 5 -304 24 -19 c32 -26 67 -24 96
6 l25 24 0 307 c0 294 -1 310 -21 352 -15 29 -37 54 -67 73 -54 34 -45 39 13
6z m-2245 -57 l0 -51 -85 2 c-55 1 -90 -3 -100 -11 -22 -18 -22 -302 0 -320
11 -9 12 -17 5 -30 -14 -26 -12 -64 3 -79 10 -10 9 -14 -5 -22 -15 -8 -18 -25
-18 -97 l0 -88 -45 1 -45 0 0 313 c0 271 2 319 16 349 25 52 56 67 153 74 48
3 94 6 104 7 14 2 17 -6 17 -48z m2226 19 c61 -37 64 -53 64 -401 l0 -313 -45
0 -45 -1 0 312 c0 277 -2 313 -17 325 -11 10 -39 13 -100 11 l-83 -4 0 50 0
49 98 -5 c71 -3 105 -9 128 -23z m-2348 -128 c-32 -28 -33 -33 -39 -123 l-5
-93 -2 116 c-1 64 1 119 5 122 3 4 21 7 40 7 l33 0 -32 -29z m1053 -360 l-31
-29 0 -155 c0 -141 2 -157 21 -181 26 -33 79 -36 109 -6 18 18 20 33 20 182
l0 162 -27 28 -27 28 52 0 c55 0 60 -4 37 -34 -12 -16 -15 -55 -15 -186 0
-154 2 -168 20 -185 11 -10 18 -21 15 -25 -7 -11 -255 -9 -255 2 0 5 9 21 20
36 19 23 21 39 19 178 -1 135 -3 156 -20 178 -10 13 -19 27 -19 30 0 3 25 6
56 6 l56 0 -31 -29z m89 -186 l0 -175 -45 0 -45 0 0 175 0 175 45 0 45 0 0
-175z m-776 -144 c15 -17 17 -47 17 -282 -1 -256 -2 -265 -22 -281 -19 -16
-49 -18 -308 -18 -210 0 -293 4 -311 13 l-25 13 -3 268 c-2 240 -1 271 14 288
16 17 38 18 319 18 284 0 303 -1 319 -19z m2148 2 c17 -15 18 -37 18 -283 0
-237 -2 -269 -17 -281 -25 -22 -598 -25 -630 -4 l-23 15 0 270 c0 231 2 271
16 284 13 14 56 16 316 16 266 0 304 -2 320 -17z"/>
<path d="M749 2687 c-79 -53 -100 -134 -54 -212 40 -68 121 -93 199 -61 71 30
107 134 71 210 -37 77 -147 109 -216 63z m124 -84 c33 -38 22 -94 -24 -113
-27 -11 -33 -11 -57 7 -33 25 -41 76 -16 104 22 24 76 25 97 2z"/>
<path d="M1110 2688 c-75 -52 -98 -125 -61 -200 51 -107 202 -118 268 -19 29
42 30 112 4 161 -38 73 -145 102 -211 58z m133 -100 c17 -23 18 -31 8 -56 -30
-71 -131 -54 -131 21 0 68 81 91 123 35z"/>
<path d="M228 829 c-33 -19 -20 -51 48 -120 l67 -67 -67 -62 c-66 -62 -80 -92
-54 -118 27 -27 55 -11 141 77 48 49 87 94 87 101 0 16 -180 200 -194 200 -6
0 -19 -5 -28 -11z m172 -183 c0 -13 -49 -67 -100 -111 -24 -21 -20 -15 14 23
50 55 55 78 31 137 -6 16 -1 13 23 -9 18 -17 32 -35 32 -40z"/>
<path d="M508 679 c-21 -12 -24 -49 -6 -67 16 -16 170 -16 186 0 17 17 15 44
-4 62 -18 19 -147 22 -176 5z"/>
<path d="M2378 829 c-34 -19 -20 -52 47 -119 l65 -64 -65 -66 c-80 -81 -88
-130 -20 -130 22 0 185 171 185 195 0 14 -31 51 -89 108 -49 48 -92 87 -97 87
-5 0 -17 -5 -26 -11z m138 -144 c39 -39 37 -51 -12 -95 l-28 -25 22 38 c23 40
20 58 -16 100 -27 31 -2 18 34 -18z"/>
<path d="M2650 670 c-24 -24 -25 -34 -4 -54 19 -20 173 -23 192 -4 17 17 15
42 -6 61 -29 26 -155 24 -182 -3z"/>
<path d="M1470 2145 c-16 -19 -113 -533 -106 -561 3 -12 15 -24 25 -27 44 -11
52 10 102 279 27 142 49 269 49 281 0 20 -25 43 -48 43 -5 0 -15 -7 -22 -15z"/>
<path d="M1167 1962 c-51 -51 -87 -96 -87 -107 0 -24 168 -195 191 -195 8 0
20 5 27 12 25 25 11 54 -53 118 l-65 64 65 66 c64 65 77 94 53 118 -23 23 -44
11 -131 -76z m-11 -107 c0 -27 -3 -32 -13 -23 -16 13 -17 30 -1 46 7 7 12 12
13 12 1 0 1 -16 1 -35z"/>
<path d="M1590 2035 c-21 -25 -3 -60 61 -120 l62 -57 -67 -67 c-69 -70 -82
-102 -47 -121 11 -5 25 -10 31 -10 17 0 190 178 190 196 0 9 -39 56 -87 105
-88 90 -117 105 -143 74z m174 -190 c-12 -31 -30 -22 -26 13 4 32 6 34 18 18
7 -10 10 -24 8 -31z"/>
<path d="M1272 688 c-25 -25 -12 -55 54 -118 l65 -63 -65 -66 c-73 -73 -83
-104 -41 -123 25 -11 31 -7 120 82 52 52 95 101 95 109 0 7 -39 53 -87 102
-86 88 -114 104 -141 77z m177 -175 c1 -13 -49 -76 -56 -69 -3 2 3 16 12 30
20 31 14 55 -28 104 -30 35 -29 34 20 -8 28 -25 51 -50 52 -57z"/>
<path d="M1552 538 c-18 -18 -14 -56 7 -68 11 -5 50 -10 86 -10 77 0 105 12
105 43 0 39 -19 47 -105 47 -50 0 -86 -5 -93 -12z"/>
</g>
</svg>
